<?xml version="1.0" encoding="UTF-8"?>
<svg width="24px" height="23px" viewBox="0 0 24 23" version="1.1" xmlns="http://www.w3.org/2000/svg" xmlns:xlink="http://www.w3.org/1999/xlink">
    <!-- Generator: Sketch 42 (36781) - http://www.bohemiancoding.com/sketch -->
    <title>Group</title>
    <desc>Created with Sketch.</desc>
    <defs></defs>
    <g id="Page-1" stroke="none" stroke-width="1" fill="none" fill-rule="evenodd">
        <g id="Icon" transform="translate(-4.000000, -5.000000)" fill="#000000">
            <g id="Group" transform="translate(4.000000, 5.000000)">
                <g id="Page-1">
                    <path d="M1.46450708,17.6950511 C0.761291844,17.2114077 0.307510156,16.4935543 0.307510156,15.4384387 C0.307510156,13.6801079 1.58219756,12.5664398 3.354581,12.5664398 C5.12813549,12.5664398 6.40223737,13.694746 6.40223737,15.4091625 C6.40223737,16.3758638 5.99237004,17.123579 5.18668797,17.6950511 C5.99237004,18.2665233 6.40223737,19.0136529 6.40223737,19.9809398 C6.40223737,21.6947708 5.12813549,22.823077 3.354581,22.823077 C1.58219756,22.823077 0.307510156,21.7099944 0.307510156,19.9516636 C0.307510156,18.9551004 0.717377487,18.2079708 1.46450708,17.6950511 M5.08363561,15.4384387 C5.08363561,14.500428 4.3950585,13.8850415 3.36980464,13.8850415 C2.34396527,13.8850415 1.62611191,14.500428 1.62611191,15.4384387 C1.62611191,16.4642781 2.47629386,17.0357503 3.36980464,17.0357503 C4.26390095,17.0357503 5.08363561,16.4642781 5.08363561,15.4384387 M1.62611191,19.9516636 C1.62611191,20.8890887 2.34396527,21.5044752 3.36980464,21.5044752 C4.3950585,21.5044752 5.08363561,20.8890887 5.08363561,19.9516636 C5.08363561,18.9258242 4.26390095,18.354352 3.36980464,18.354352 C2.47629386,18.354352 1.62611191,18.9258242 1.62611191,19.9516636" id="Fill-1"></path>
                    <polygon id="Fill-3" points="14.4382134 0.0575230333 10.9947423 3.50099414 11.9034767 4.4390048 14.3357465 2.00614943 14.3357465 10.3141602 15.6549338 10.3141602 15.6549338 0.0575230333"></polygon>
                    <path d="M20.849124,9.35395818 C19.8671989,9.35395818 19.1194838,10.1742784 18.8712213,11.229394 L17.7423296,10.3206596 C18.1381443,9.07524839 19.2810886,8.03535642 20.8052096,8.03535642 C22.4317974,8.03535642 23.7790898,9.22221511 23.7790898,10.9360461 C23.7790898,11.9326092 23.3253082,12.6949625 22.695869,13.1493297 C23.3838606,13.6323876 23.7790898,14.4087934 23.7790898,15.4053566 C23.7790898,17.2222399 22.4604881,18.2919936 20.8344858,18.2919936 C19.2664505,18.2919936 18.1088681,17.2954305 17.7276915,15.9182762 L18.8712213,15.0388181 C19.0902076,16.1817624 19.8232846,16.9733919 20.849124,16.9733919 C21.7426347,16.9733919 22.4604881,16.3726435 22.4604881,15.3760803 C22.4604881,14.3941553 21.7572729,13.8519594 20.9369527,13.8086305 L20.3215661,13.8086305 L20.3215661,12.4894433 L20.9369527,12.4894433 C21.7572729,12.4455289 22.4604881,11.8740567 22.4604881,10.9360461 C22.4604881,9.9693447 21.6987204,9.35395818 20.849124,9.35395818" id="Fill-4"></path>
                </g>
            </g>
        </g>
    </g>
</svg>