<svg aria-hidden="true" style="position: absolute; width: 0; height: 0; overflow: hidden;" version="1.1" xmlns="http://www.w3.org/2000/svg" xmlns:xlink="http://www.w3.org/1999/xlink">
<defs>
<symbol id="icon-play-circle" viewBox="0 0 20 20">
<title>play-circle</title>
<path d="M9.5 20c-2.538 0-4.923-0.988-6.718-2.782s-2.782-4.18-2.782-6.717c0-2.538 0.988-4.923 2.782-6.718s4.18-2.783 6.718-2.783c2.538 0 4.923 0.988 6.718 2.783s2.782 4.18 2.782 6.718-0.988 4.923-2.782 6.717c-1.794 1.794-4.18 2.782-6.718 2.782zM9.5 2c-4.687 0-8.5 3.813-8.5 8.5s3.813 8.5 8.5 8.5c4.687 0 8.5-3.813 8.5-8.5s-3.813-8.5-8.5-8.5z"></path>
<path d="M6.5 16c-0.083 0-0.167-0.021-0.242-0.063-0.159-0.088-0.258-0.256-0.258-0.437v-10c0-0.182 0.099-0.349 0.258-0.437s0.353-0.083 0.507 0.013l8 5c0.146 0.091 0.235 0.252 0.235 0.424s-0.089 0.333-0.235 0.424l-8 5c-0.081 0.051-0.173 0.076-0.265 0.076zM7 6.402v8.196l6.557-4.098-6.557-4.098z"></path>
</symbol>
<symbol id="icon-omnilife" viewBox="0 0 176.47 32">
<title>omnilife</title>
<path d="M-94.11,250.31A15.39,15.39,0,0,1-98.8,239a15.47,15.47,0,0,1,4.69-11.31A15.39,15.39,0,0,1-82.8,223a15.47,15.47,0,0,1,11.31,4.69A15.39,15.39,0,0,1-66.8,239a15.47,15.47,0,0,1-4.69,11.31A15.39,15.39,0,0,1-82.8,255,15.39,15.39,0,0,1-94.11,250.31Zm3.34-19.18a10.82,10.82,0,0,0-3.28,7.92A10.82,10.82,0,0,0-90.77,247a10.82,10.82,0,0,0,7.92,3.28A10.82,10.82,0,0,0-74.93,247a10.82,10.82,0,0,0,3.28-7.92,10.82,10.82,0,0,0-3.28-7.92,10.82,10.82,0,0,0-7.92-3.28A10.82,10.82,0,0,0-90.77,231.13Z" transform="translate(98.8 -223)" style="fill:#212121"/><path d="M-30.84,223.42v31.27h-4.74V234.83l-8.7,19.86h-5.37l-8.5-19.75v19.75h-4.74V223.42h5l11,25.54,11.15-25.54Z" transform="translate(98.8 -223)" style="fill:#212121"/><path d="M-2.75,223.42v31.27h-5l-13.39-22.36v22.36h-4.74V223.42h5l13.34,22.36V223.42Z" transform="translate(98.8 -223)" style="fill:#212121"/><path d="M7,254.69H2.26V223.42H7Z" transform="translate(98.8 -223)" style="fill:#212121"/><path d="M16.9,223.42v26.53H28.11v4.74H12.16V223.42Z" transform="translate(98.8 -223)" style="fill:#212121"/><path d="M36.76,254.69H32V223.42h4.74Z" transform="translate(98.8 -223)" style="fill:#212121"/><path d="M57.87,223.42v4.74H46.66v8.5h8.65v4.74H46.66v13.29H41.92V223.42Z" transform="translate(98.8 -223)" style="fill:#212121"/><path d="M77.67,223.42v4.74H66.41v8.5h8.65v4.74H66.41v8.55H77.62v4.74H61.67V223.42Z" transform="translate(98.8 -223)" style="fill:#212121"/>
</symbol>
<symbol id="icon-nissan" viewBox="0 0 37.53 32">
<title>nissan</title>
<path d="M-321.14,22.68c0-1.19-.93-1.21-.93-1.21l-1.63-.24A16.63,16.63,0,0,0-339.83,9.5a16.66,16.66,0,0,0-16.09,11.57l-1.27.26c-1.19.22-1.26,1-1.26,1.1a30.62,30.62,0,0,0,0,5.86,1.13,1.13,0,0,0,1.19,1.21c.39.09.83.16,1.3.24A16.65,16.65,0,0,0-339.83,41.5a16.61,16.61,0,0,0,16.12-11.69c1-.13,1.57-.22,1.57-.22.95-.08,1-1.22,1-1.23A56.63,56.63,0,0,0-321.14,22.68Zm-18.69-9.28a12.68,12.68,0,0,1,11.65,7.35,185.36,185.36,0,0,0-23.19-.22A12.7,12.7,0,0,1-339.83,13.4Zm8.43,13.83h-1.28l-.39-.71h-2.06l-.32.71h-1.28l1.8-4h1.6Zm-8.73-1.49a1.07,1.07,0,0,1-.9-1v-.19a1.28,1.28,0,0,1,1-1.29h2.89v1h-2.63v.58h2.18a1.15,1.15,0,0,1,.78,1v.19a1.2,1.2,0,0,1-.71,1.16H-341v-1h3v-.52Zm-4.62,0a1.07,1.07,0,0,1-.9-1v-.19a1.28,1.28,0,0,1,1-1.29h2.89v1h-2.63v.58h2.18a1.15,1.15,0,0,1,.77,1v.19a1.2,1.2,0,0,1-.71,1.16h-3.47v-1h3v-.52Zm-1.66-2.52v4h-1.42v-4Zm-5.65,1.36v2.65h-1.22v-4h2l1.48,2.84V23.22h1v4h-1.86Zm12.24,13a12.69,12.69,0,0,1-11.66-7.37c5.49.41,11.82.44,11.82.44,4.45.07,8.43-.14,11.47-.39a12.72,12.72,0,0,1-11.64,7.32Zm13.44-10.36h-1.93l-1.54-2.72v2.72h-1.22v-4H-329l1.35,2.78V23.22h1.22Z" transform="translate(358.6 -9.5)" style="fill:#212121"/><polygon points="24.51 14.82 23.93 15.98 25.09 15.98 24.51 14.82" style="fill:#212121"/>
</symbol>
<symbol id="icon-ford" viewBox="0 0 85.33 32">
<title>ford</title>
<g id="Page-1"><g id="Desktop-HD-Copy-3"><g id="Asset-1"><path id="Path" d="M-141.29-174.34c-23.68,0-42.67,7.11-42.67,16s19.14,16,42.67,16,42.67-7.18,42.67-16S-117.76-174.34-141.29-174.34Z" transform="translate(183.96 174.34)" style="fill:#212121"/><path id="Shape" d="M-116.23-162.93c.06-.1,0-.17-.12-.17h-2.16c-.16,0-.24,0-.32.17-.25.47-3.26,5-3.82,5.87-.09.13-.21.12-.22,0a1.89,1.89,0,0,0-1.22-1.41,3.1,3.1,0,0,0-1.61-.19,5.76,5.76,0,0,0-2.67,1.25c-1.19.89-2.18,2-3.48,2.89-.71.46-1.69.87-2.34.26a2,2,0,0,1,.38-2.7.1.1,0,0,1,.13,0,.1.1,0,0,1,.06.12,1.19,1.19,0,0,0,.34,1.14,1.29,1.29,0,0,0,1.44.16,1.88,1.88,0,0,0,1-1.45,1.64,1.64,0,0,0-.31-1.22,1.64,1.64,0,0,0-1.08-.65h-.11a3,3,0,0,0-2.17.79,4.15,4.15,0,0,0-.87.94c-.07.11-.19.12-.18,0,0-1.23-.47-1.92-1.48-1.94a3.78,3.78,0,0,0-2.28.93,20.58,20.58,0,0,0-2,2.07c-.08.09-.16.08-.18-.09a4.17,4.17,0,0,0-.59-2.16.5.5,0,0,0-.65-.16,4.74,4.74,0,0,0-.76.46.43.43,0,0,0-.13.48,5.69,5.69,0,0,1-.21,3.77,4.21,4.21,0,0,1-2.37,2.37,1.56,1.56,0,0,1-1.83-.49c-.59-.83-.36-2.28.54-3.49a6.74,6.74,0,0,1,3.08-2.17.18.18,0,0,0,.14-.21v0c-.06-.19-.16-.44-.2-.56-.1-.28-.4-.33-.76-.3a6.4,6.4,0,0,0-2.32.78,7.92,7.92,0,0,0-3.33,4.12,4.25,4.25,0,0,1-.59,1.12,11.26,11.26,0,0,1-1.39,1.35.24.24,0,0,0-.06.3,3.24,3.24,0,0,0,.54.71.3.3,0,0,0,.3-.06,7.41,7.41,0,0,0,1.36-1.21c.1-.12.2-.07.26.11a3,3,0,0,0,1.94,2.07c1.78.59,3.62-.27,5-1.78a20.08,20.08,0,0,0,1.54-2,18.46,18.46,0,0,1,3.05-3.32c.49-.38,1.08-.66,1.37-.47s.31.51-.07,1.19c-1.37,2.51-3.4,5.46-3.77,6.18-.07.12,0,.22.12.22h2.07a.25.25,0,0,0,.21-.13c1.05-1.65,2-3.22,3.11-4.85.06-.09.11,0,.12,0a2.67,2.67,0,0,0,.34,1.23,1.84,1.84,0,0,0,1.61.89,3.08,3.08,0,0,0,1.3-.27,4.47,4.47,0,0,0,1.07-.57c.16-.11.19.08.18.1a3.11,3.11,0,0,0,1.36,3.51c1.56.77,3.26-.3,4.26-1.29.1-.09.2-.09.21.12a1.8,1.8,0,0,0,.5,1.12c.83.83,2.49.5,4.17-.79a21,21,0,0,0,3.22-3.26.14.14,0,0,0,0-.1.14.14,0,0,0,0-.1c-.15-.16-.38-.35-.53-.49a.19.19,0,0,0-.23,0,26.83,26.83,0,0,1-3.33,3.05c-.46.32-1.19.57-1.51.13a.73.73,0,0,1,0-.72C-122.8-152.86-116.55-162.37-116.23-162.93Zm-8.26,8c0,.07.11.14.2.18s.05,0,0,.11a9.13,9.13,0,0,1-.84,1.39,5.24,5.24,0,0,1-1.05,1.15c-.63.52-1.51,1.09-2.23.71a1.09,1.09,0,0,1-.44-1,5.12,5.12,0,0,1,1.31-3.11c1-1.26,2.16-1.92,2.9-1.56s.52,1.26.18,2A.18.18,0,0,0-124.49-155Z" transform="translate(183.96 174.34)" style="fill:#fff"/><path id="Shape-2" data-name="Shape" d="M-161.55-149.54a4.35,4.35,0,0,1-4.62-3.92,5,5,0,0,1,1-3.63,5.14,5.14,0,0,1,2.86-1.84,1.08,1.08,0,0,1,.94.19.5.5,0,0,1,.08.7.48.48,0,0,1-.16.13,4.83,4.83,0,0,0-2.12,2,2.39,2.39,0,0,0,.12,2.47c.94,1.41,3.56,1.45,6-.8a20.79,20.79,0,0,0,1.68-1.71,37.38,37.38,0,0,0,2.84-3.64.08.08,0,0,0,0-.07s0,0-.07,0a4.32,4.32,0,0,0-2.58.91.5.5,0,0,1-.71-.08.57.57,0,0,1,.22-.76,9.65,9.65,0,0,1,4.15-1.3.24.24,0,0,0,.18-.11c.59-.76,1-1.44,1.67-2.21a17,17,0,0,1,2.07-2,9.41,9.41,0,0,1,2-1.32c.15-.08,0-.17-.07-.17-3.19-.59-6.5-1.37-9.66-.2-2.18.82-3.13,2.56-2.67,3.72.33.82,1.41,1,2.43.46a5.46,5.46,0,0,0,2.17-1.93c.3-.47,1-.13.61.69-.93,2.18-2.7,3.91-4.85,4a2.83,2.83,0,0,1-3-3c0-3.28,3.66-5.45,7.5-5.77,4.63-.38,9,.85,13.6,1.41a29.58,29.58,0,0,0,10.43-.38.53.53,0,0,1,.65.35.55.55,0,0,1,0,.24c0,.61-.51,1.19-1.67,1.83a8.56,8.56,0,0,1-4.15,1c-3.5,0-6.76-1.34-10.13-2.07,0,.15,0,.32-.08.42a16,16,0,0,0-4.69,4.74s0,.09.05.08c1-.05,1.86-.08,2.78-.15.16,0,.17-.05.15-.17a2.28,2.28,0,0,1,.71-2,1.46,1.46,0,0,1,1.88-.22,1.44,1.44,0,0,1,.21,1.86,2.24,2.24,0,0,1-1.36,1.1s-.11,0-.09.12.71.54.77.64a.32.32,0,0,1-.08.36.43.43,0,0,1-.33.16.71.71,0,0,1-.34-.13,3.36,3.36,0,0,1-1-.77c-.09-.11-.13-.11-.35-.1-1,.06-2.54.21-3.59.34-.25,0-.3.08-.34.17a43.64,43.64,0,0,1-5.42,7.72C-158-150.12-159.7-149.55-161.55-149.54Zm15.93-12.25c0,.14.08.17.15.16a1.53,1.53,0,0,0,.87-.63c.19-.28.28-.67.09-.83a.5.5,0,0,0-.64.08A1.42,1.42,0,0,0-145.63-161.79Z" transform="translate(183.96 174.34)" style="fill:#fff"/><path id="Shape-3" data-name="Shape" d="M-141.29-143.74c-22.58,0-40.89-6.54-40.89-14.61s18.31-14.6,40.89-14.6,40.89,6.54,40.89,14.6S-118.71-143.74-141.29-143.74Zm0-28c-21.79,0-39.45,6-39.45,13.38S-163.08-145-141.29-145s39.45-6,39.45-13.39S-119.51-171.73-141.29-171.73Z" transform="translate(183.96 174.34)" style="fill:#fff"/></g></g></g>
</symbol>
<symbol id="icon-uag" viewBox="0 0 24.83 32">
<title>uag</title>
<path d="M838.9,218.59s-1.18-.59-4.37,0l-.92,2.16A12.94,12.94,0,0,1,838.9,218.59Z" transform="translate(-825.08 -190.56)" style="fill:#212121"/><path d="M847.84,217.67V221c-4.88,1.49-6.48-4.12-4.36-6.59,2.33-2.71,5.4-.79,5.4-.79l.69-1.1a6,6,0,0,0-4.58-.64c-3.39.71-5,3.43-4.56,5.86,0,.12,0,.23.07.34l-2.42-6.2h-1.58l-3.1,7.58a3.06,3.06,0,0,0,0-.42c0-.5,0-7.17,0-7.17h-1.76v6.86a2.27,2.27,0,0,1-2.42,2.47,2.34,2.34,0,0,1-2.24-2.61v-6.72h-2v7c0,1.27.65,3.7,4.21,3.69a4.13,4.13,0,0,0,3.49-1.63l-.59,1.43h1.64l3.16-8.29,2.95,8.29h2.23l-.88-2.24c2.29,3.62,7.78,2.17,8.61,1.71v-4.16Z" transform="translate(-825.08 -190.56)" style="fill:#212121"/><path d="M847.32,210.87c0,.06-8.16-3-16.92-1.76l-2.14,2.4C840.51,207.83,845.25,210.71,847.32,210.87Z" transform="translate(-825.08 -190.56)" style="fill:#212121"/><path d="M847.13,210.48a43,43,0,0,0-16.67-3.93l-1.86,1.58S835.75,206.2,847.13,210.48Z" transform="translate(-825.08 -190.56)" style="fill:#212121"/><path d="M846.26,209.77a53.11,53.11,0,0,0-15.87-5.85l-2.19,1.6S836.2,204.39,846.26,209.77Z" transform="translate(-825.08 -190.56)" style="fill:#212121"/><path d="M845.41,209.09a49.79,49.79,0,0,0-14.62-7.71l-1.9,1.25S835,202.39,845.41,209.09Z" transform="translate(-825.08 -190.56)" style="fill:#212121"/><path d="M844.57,208.08a66.41,66.41,0,0,0-12.86-9.17l-1.88,1S834.65,200.13,844.57,208.08Z" transform="translate(-825.08 -190.56)" style="fill:#212121"/><path d="M844.12,207.3A74.2,74.2,0,0,0,833,196.94l-1.69.73S836.81,199.4,844.12,207.3Z" transform="translate(-825.08 -190.56)" style="fill:#212121"/><path d="M843.44,206c-1.62-3.29-9.08-10.89-9.08-10.89l-1.9.68S836.43,196.72,843.44,206Z" transform="translate(-825.08 -190.56)" style="fill:#212121"/><path d="M843,204.81a46.13,46.13,0,0,0-6.91-11.26l-1.79,0A35.29,35.29,0,0,1,843,204.81Z" transform="translate(-825.08 -190.56)" style="fill:#212121"/><path d="M842.95,203.64c-1.25-4.58-5.05-11.38-5.05-11.38l-1.55,0S839.3,194.75,842.95,203.64Z" transform="translate(-825.08 -190.56)" style="fill:#212121"/><path d="M843,202.46a57.77,57.77,0,0,0-3.34-11l-1.1-.09S840.22,193.24,843,202.46Z" transform="translate(-825.08 -190.56)" style="fill:#212121"/><path d="M843,200.56c-1.11-8.16-2.59-10-2.59-10l1,.14S842.59,193.36,843,200.56Z" transform="translate(-825.08 -190.56)" style="fill:#212121"/>
</symbol>
<symbol id="icon-patrice" viewBox="0 0 258.36 32">
<title>patrice</title>
<path d="M142.18-60.16c-7,0-14.1-.1-21.15,0-1.81,0-2.21-.55-2.19-2.26q.13-13.09,0-26.19c0-1.71.38-2.29,2.19-2.27,7,.08,14.1,0,21.14-.05v6.06c-4.19-.06-8.37-.14-12.56-.17-5,0-4.92,0-4.88,5.05,0,1.48.49,1.82,1.86,1.79,3.77-.08,7.55,0,11.33,0s3.72,0,3.67,3.77c0,1.3-.34,1.75-1.69,1.72-3.61-.09-7.22,0-10.82,0-4.31,0-4.18,0-4.35,4.31-.09,2.16.64,2.58,2.65,2.57,4.93,0,9.87-.36,14.8.19Z" transform="translate(116.18 91.61)" style="fill:#212121"/><path d="M-116.18-90.94c5,0,10.08,0,15.12.06s8.67,2.67,10.31,7.05a11.06,11.06,0,0,1-3,12,10.88,10.88,0,0,1-7.17,2.61c-2.27,0-4.54.12-6.8,0-1.86-.12-2.77.28-2.5,2.39.2,1.57-.07,3.2.07,4.78s-.49,2.05-2,1.93c-1.33-.11-2.68,0-4,0V-74.79c5.11.38,10.23.16,15.34.1a4.71,4.71,0,0,0,1.7-.39,5.26,5.26,0,0,0,3-6c-.53-2.64-2.56-4.26-5.7-4.31-4.79-.07-9.57,0-14.36,0Z" transform="translate(116.18 91.61)" style="fill:#212121"/><path d="M26.33-70.89l9.32,10.45c-4,.34-7.56,1.07-10-2.89-1.36-2.17-3.38-3.94-5.1-5.89a2.91,2.91,0,0,0-2.07-1.21c-4.51-.36-4.5-.4-4.5,4.13a17.87,17.87,0,0,0,0,3c.46,2.63-.66,3.19-3.13,3.14-2.23,0-3-.5-2.89-2.87.22-3.68.12-7.39,0-11.09,0-1.35.4-1.71,1.71-1.69,4.28.07,8.57,0,12.85,0,3.4,0,5.5-1.92,5.45-4.87s-2.16-4.73-5.37-4.76c-4.2,0-8.4-.06-12.6,0-1.4,0-2.09-.13-2.06-1.85.07-3.69,0-3.77,3.73-3.67,4.61.13,9.24-.47,13.82.39,4.91.93,8,4.3,8.39,9,.41,4.87-1.89,8.33-6.77,10.19C26.91-71.21,26.72-71.09,26.33-70.89Z" transform="translate(116.18 91.61)" style="fill:#212121"/><path d="M-61.42-84.23C-64.75-76.74-68-69.68-71-62.53c-.78,1.86-1.72,2.61-3.68,2.33a29.85,29.85,0,0,0-3.8,0c2.55-5.67,5-11.06,7.39-16.44,1.9-4.19,3.92-8.32,5.71-12.55.56-1.33,1.24-1.94,2.6-1.65,1.68.36,4-1.15,5,1,4.49,9.69,8.8,19.47,13.17,29.22,0,.06,0,.16-.11.41-1.44,0-2.94-.09-4.43,0-1.32.11-1.87-.45-2.37-1.61C-54.72-69.17-58-76.49-61.42-84.23Z" transform="translate(116.18 91.61)" style="fill:#212121"/><path d="M91.46-59.65C82.81-59.66,77-63.9,75.31-71.1c-1.83-7.76,1.33-15.41,8-18.62,6.16-3,12.16-2.44,17.8,1.58,1.31.93,1.55,1.56.2,2.82-1.55,1.44-2.54,2.25-4.88.88A10.3,10.3,0,0,0,82-80.72c-2.74,4.89-1.24,11.57,3.38,14.19a10.85,10.85,0,0,0,11.7-.28c1.7-1.08,2.51-1,3.8.47,2.25,2.55,2.35,2.45-.59,4.32A14.52,14.52,0,0,1,91.46-59.65Z" transform="translate(116.18 91.61)" style="fill:#212121"/><path d="M-24.35-73c0-3.62-.05-7.23,0-10.85,0-1.28-.28-1.77-1.65-1.71-2.26.11-4.54,0-6.81,0-1.1,0-1.4-.37-1.47-1.45-.26-4-.31-4,3.72-4,6.47,0,13,.13,19.42-.07,2.44-.08,2.37,1,2.43,2.82.07,2-.28,3-2.54,2.7-1.74-.21-3.54.07-5.29-.07-1.55-.12-2,.35-2,1.93.09,7.06,0,14.13.08,21.19,0,1.81-.52,2.26-2.26,2.21-3.71-.1-3.71,0-3.71-3.69Q-24.35-68.41-24.35-73Z" transform="translate(116.18 91.61)" style="fill:#212121"/><path d="M57.83-75.29c0,4.37-.06,8.74,0,13.1,0,1.5-.32,2.26-1.93,2a1.37,1.37,0,0,0-.25,0c-3.77,0-3.77,0-3.77-3.62,0-8.23.06-16.46,0-24.69,0-1.83.36-2.69,2.32-2.36a7,7,0,0,0,2,0c1.4-.18,1.67.49,1.65,1.75C57.79-84.53,57.83-79.91,57.83-75.29Z" transform="translate(116.18 91.61)" style="fill:#212121"/>
</symbol>
<symbol id="icon-dif" viewBox="0 0 67.74 32">
<title>dif</title>
<path d="M-2134.49,720.81l8.25,0a9.39,9.39,0,0,0,4.53-.94,15.92,15.92,0,0,0,8.78-9.77,16.38,16.38,0,0,0,.8-5.64,16.48,16.48,0,0,0-2.1-7.33c-.57-1-1.22-1.92-1.87-2.86a11.19,11.19,0,0,0-2.3-2.21,14.49,14.49,0,0,0-1.65-1.13,13.79,13.79,0,0,0-2.48-1.13,15,15,0,0,0-4.25-.73h-7.7Z" transform="translate(2134.49 -688.81)"/><path d="M-2134,690.07v-.48h.27l6.72-.06,2.12.14a8.26,8.26,0,0,1,1.91.42,13.38,13.38,0,0,1,2.59,1.13,15,15,0,0,1,7.08,10.16,16,16,0,0,1-2.83,12.41,14.13,14.13,0,0,1-5.27,4.27,14.86,14.86,0,0,1-4.6,1.33h-8l0-29.31Z" transform="translate(2134.49 -688.81)" style="fill:#fff"/><path d="M-2133.85,718.1V719h8.07a10.7,10.7,0,0,0,3.24-.87,14.34,14.34,0,0,0,6.42-4.91,16.21,16.21,0,0,0,2.25-5.74,14.68,14.68,0,0,0-.44-6.77,16.41,16.41,0,0,0-2.28-4.51,14,14,0,0,0-4.09-3.95,10.49,10.49,0,0,0-2.56-1.13,13.71,13.71,0,0,0-4.13-.49l-6.5,0V718.1Z" transform="translate(2134.49 -688.81)"/><path d="M-2121.14,692.57a13.37,13.37,0,0,1,1.69,1.13,9.6,9.6,0,0,1,2.18,2.26,14.18,14.18,0,0,1,2.79,9,14,14,0,0,1-2.11,6.77,12.93,12.93,0,0,1-4.78,4.51,17.89,17.89,0,0,1-2.86,1.13l-1.92.35h-7.16v-26.6h7.15a10,10,0,0,1,5,1.44Z" transform="translate(2134.49 -688.81)" style="fill:#fff"/><path d="M-2132.4,717.2h6.24c4.29,0,8.63-3.22,10.29-7.63a13.28,13.28,0,0,0,.48-7.33,14.12,14.12,0,0,0-2.77-5.64,12.07,12.07,0,0,0-3.05-2.82,8.16,8.16,0,0,0-2.45-1.13,8.31,8.31,0,0,0-1.42-.35h-7.33Zm48.62,3.59h8V709.56h8.93v-9.25h-9v-2h9.06V689l-17.06.06,0,31.72Z" transform="translate(2134.49 -688.81)"/><path d="M-2123.61,693.18a9.54,9.54,0,0,1,1.35.56,11.91,11.91,0,0,1,6.22,9,12.53,12.53,0,0,1-3.94,10.72,10.9,10.9,0,0,1-6,2.68h-5.88l0-22.79v-.68h6.28a10.18,10.18,0,0,1,2,.47Zm55.76-3.55v7.5h-9.09v3.65h9v7.36h-8.85v11.6h-6.77l0-30.11h15.75Z" transform="translate(2134.49 -688.81)" style="fill:#fff"/><path d="M-2082.49,719.32h5.42l0-11.44,8.89,0v-5.95h-9v-5.23h9.12v-6h-14.41Zm-48.42-5.23V715h4.89a7.59,7.59,0,0,0,3-.82,10.7,10.7,0,0,0,5.85-7.9,11.32,11.32,0,0,0-3-9.59,10,10,0,0,0-5.81-2.85h-5l.05.65v19.62h0Z" transform="translate(2134.49 -688.81)"/><path d="M-2069.24,691.26v4.14h-9v6.9h9v4.43h-8.89V718h-3.86l0-26.75h12.86Zm-60.43,3.9h3.79a8,8,0,0,1,2.11.24,8.53,8.53,0,0,1,4.06,2.51,10.4,10.4,0,0,1,1.8,9.59,10.16,10.16,0,0,1-2.81,4.51,9.64,9.64,0,0,1-5.39,2.45h-3.53v-.78l0-18.53Z" transform="translate(2134.49 -688.81)" style="fill:#fff"/><path d="M-2081.18,717.56h2.66l0-11.16,8.65,0h.28v-2.83h-9v-8.42h9v-2.81h-11.58l0,25.25Zm-48.27-4.71v.58h3.22a8.08,8.08,0,0,0,4.83-2.12,9.66,9.66,0,0,0,2.83-8.46,9.5,9.5,0,0,0-2.06-4.51c-1.34-1.61-3.24-2.92-5.18-2.92h-3.63v17.43Z" transform="translate(2134.49 -688.81)"/><path d="M-2070.77,692.79v1.09h-8.92V704h8.92v1.15l-8.79,0v11.19h-1.15l0-23.56Zm-57.5,3.92h2.78a6.33,6.33,0,0,1,3.73,1.44,6.77,6.77,0,0,1,1.65,1.69,9.07,9.07,0,0,1,0,9,8.13,8.13,0,0,1-4,3.53,8.69,8.69,0,0,1-3.84.49h-.32V696.71Z" transform="translate(2134.49 -688.81)" style="fill:#fff"/><path d="M-2102.27,688.81v25.42l0,6.39,8.68,0V688.81Zm-25.7,22.41v.61h.33a7.09,7.09,0,0,0,3.94-.82,7.22,7.22,0,0,0,3-3.24,8.25,8.25,0,0,0,.77-3.39,7.82,7.82,0,0,0-1.87-5.08,7.61,7.61,0,0,0-2.2-1.72,4.33,4.33,0,0,0-1.73-.59H-2128v14.22Z" transform="translate(2134.49 -688.81)"/><path d="M-2094.94,703.87v10.79l.05,4.63h-6.51l0-5V689.17h6.45v14.7Zm-31.86-5.61h.93a7.67,7.67,0,0,1,1.42.25,5.87,5.87,0,0,1,2.9,1.89c1.69,2.14,1.53,5.57.08,7.9a6.46,6.46,0,0,1-3.76,2.82,4.08,4.08,0,0,1-.91.18h-.63v-13Z" transform="translate(2134.49 -688.81)" style="fill:#fff"/><path d="M-2100.78,718.68l5.36,0v-4.14l0-4V690.33h-5.32v28.35Z" transform="translate(2134.49 -688.81)"/><path d="M-2096.64,716.91v.67h-3.76V690.75h3.74l0,2.18v24Z" transform="translate(2134.49 -688.81)" style="fill:#fff"/><path d="M-2099.43,717.21l2.49,0v-25.3h-2.5v18.72l0,3.71v2.92Z" transform="translate(2134.49 -688.81)"/><path d="M-2098,692.28v23.3h-1.08v-23.3h1Z" transform="translate(2134.49 -688.81)" style="fill:#fff"/>
</symbol>

<symbol id="icon-twitter" viewBox="0 0 26 28">
<title>twitter</title>
<path d="M25.312 6.375c-0.688 1-1.547 1.891-2.531 2.609 0.016 0.219 0.016 0.438 0.016 0.656 0 6.672-5.078 14.359-14.359 14.359-2.859 0-5.516-0.828-7.75-2.266 0.406 0.047 0.797 0.063 1.219 0.063 2.359 0 4.531-0.797 6.266-2.156-2.219-0.047-4.078-1.5-4.719-3.5 0.313 0.047 0.625 0.078 0.953 0.078 0.453 0 0.906-0.063 1.328-0.172-2.312-0.469-4.047-2.5-4.047-4.953v-0.063c0.672 0.375 1.453 0.609 2.281 0.641-1.359-0.906-2.25-2.453-2.25-4.203 0-0.938 0.25-1.797 0.688-2.547 2.484 3.062 6.219 5.063 10.406 5.281-0.078-0.375-0.125-0.766-0.125-1.156 0-2.781 2.25-5.047 5.047-5.047 1.453 0 2.766 0.609 3.687 1.594 1.141-0.219 2.234-0.641 3.203-1.219-0.375 1.172-1.172 2.156-2.219 2.781 1.016-0.109 2-0.391 2.906-0.781z"></path>
</symbol>
<symbol id="icon-facebook" viewBox="0 0 16 28">
<title>facebook</title>
<path d="M14.984 0.187v4.125h-2.453c-1.922 0-2.281 0.922-2.281 2.25v2.953h4.578l-0.609 4.625h-3.969v11.859h-4.781v-11.859h-3.984v-4.625h3.984v-3.406c0-3.953 2.422-6.109 5.953-6.109 1.687 0 3.141 0.125 3.563 0.187z"></path>
</symbol>
<symbol id="icon-instagram" viewBox="0 0 24 28">
<title>instagram</title>
<path d="M16 14c0-2.203-1.797-4-4-4s-4 1.797-4 4 1.797 4 4 4 4-1.797 4-4zM18.156 14c0 3.406-2.75 6.156-6.156 6.156s-6.156-2.75-6.156-6.156 2.75-6.156 6.156-6.156 6.156 2.75 6.156 6.156zM19.844 7.594c0 0.797-0.641 1.437-1.437 1.437s-1.437-0.641-1.437-1.437 0.641-1.437 1.437-1.437 1.437 0.641 1.437 1.437zM12 4.156c-1.75 0-5.5-0.141-7.078 0.484-0.547 0.219-0.953 0.484-1.375 0.906s-0.688 0.828-0.906 1.375c-0.625 1.578-0.484 5.328-0.484 7.078s-0.141 5.5 0.484 7.078c0.219 0.547 0.484 0.953 0.906 1.375s0.828 0.688 1.375 0.906c1.578 0.625 5.328 0.484 7.078 0.484s5.5 0.141 7.078-0.484c0.547-0.219 0.953-0.484 1.375-0.906s0.688-0.828 0.906-1.375c0.625-1.578 0.484-5.328 0.484-7.078s0.141-5.5-0.484-7.078c-0.219-0.547-0.484-0.953-0.906-1.375s-0.828-0.688-1.375-0.906c-1.578-0.625-5.328-0.484-7.078-0.484zM24 14c0 1.656 0.016 3.297-0.078 4.953-0.094 1.922-0.531 3.625-1.937 5.031s-3.109 1.844-5.031 1.937c-1.656 0.094-3.297 0.078-4.953 0.078s-3.297 0.016-4.953-0.078c-1.922-0.094-3.625-0.531-5.031-1.937s-1.844-3.109-1.937-5.031c-0.094-1.656-0.078-3.297-0.078-4.953s-0.016-3.297 0.078-4.953c0.094-1.922 0.531-3.625 1.937-5.031s3.109-1.844 5.031-1.937c1.656-0.094 3.297-0.078 4.953-0.078s3.297-0.016 4.953 0.078c1.922 0.094 3.625 0.531 5.031 1.937s1.844 3.109 1.937 5.031c0.094 1.656 0.078 3.297 0.078 4.953z"></path>
</symbol>
<symbol id="icon-brightness_1" viewBox="0 0 32 32">
<title>brightness_1</title>
<path d="M2.688 16c0-7.375 5.938-13.313 13.313-13.313s13.313 5.938 13.313 13.313-5.938 13.313-13.313 13.313-13.313-5.938-13.313-13.313z"></path>
</symbol>
<symbol id="icon-call_made" viewBox="0 0 32 32">
<title>call_made</title>
<path d="M12 6.688h13.313v13.313h-2.625v-8.813l-15.5 15.5-1.875-1.875 15.5-15.5h-8.813v-2.625z"></path>
</symbol>
<symbol id="icon-dehaze" viewBox="0 0 32 32">
<title>dehaze</title>
<path d="M2.688 7.313h26.625v2.688h-26.625v-2.688zM2.688 14h26.625v2.688h-26.625v-2.688zM2.688 20.688h26.625v2.625h-26.625v-2.625z"></path>
</symbol>
<symbol id="icon-play_arrow" viewBox="0 0 32 32">
<title>play_arrow</title>
<path d="M10.688 6.688l14.625 9.313-14.625 9.313v-18.625z"></path>
</symbol>
<symbol id="icon-sort" viewBox="0 0 32 32">
<title>sort</title>
<path d="M4 17.313v-2.625h16v2.625h-16zM4 8h24v2.688h-24v-2.688zM4 24v-2.688h8v2.688h-8z"></path>
</symbol>
<symbol id="icon-clock" viewBox="0 0 32 32">
<title>clock</title>
<path d="M16 1.333c-8.133 0-14.667 6.533-14.667 14.667s6.533 14.667 14.667 14.667 14.667-6.533 14.667-14.667-6.533-14.667-14.667-14.667zM16 28c-6.667 0-12-5.333-12-12s5.333-12 12-12c6.667 0 12 5.333 12 12s-5.333 12-12 12z"></path>
<path d="M21.867 17.467l-4.533-2.267v-7.2c0-0.8-0.533-1.333-1.333-1.333s-1.333 0.533-1.333 1.333v8c0 0.533 0.267 0.933 0.8 1.2l5.333 2.667c0.133 0.133 0.267 0.133 0.533 0.133 0.533 0 0.933-0.267 1.2-0.8s0-1.333-0.667-1.733z"></path>
</symbol>
<symbol id="icon-logo" viewBox="0 0 111.3 24">
<title>logo</title>
<path d="M-36.65,42.9c2.65,0,5.3,0,7.95,0,.57,0,.77-.17.93-.76.73-2.74,2.12-5,4.94-6.06a14.77,14.77,0,0,1,13,1.12c.79.43,1.53.94,2.3,1.41.46.29.56.5,0,.89a1.92,1.92,0,0,1-2.25.16,18.65,18.65,0,0,0-7.57-2.22,8.14,8.14,0,0,0-6.57,2.49A5,5,0,0,0-25,42.3c-.09.38.06.57.45.57h.82l14.62,0c1.2,0,2.4-.08,3.6-.09a1.14,1.14,0,0,0,.95-.62A32.2,32.2,0,0,0-.39,33.29c.08-.24.16-.47.25-.71.62-1.52.41-2.24-1-3.06-.53-.31-.86-.56-.63-1.27s.48-1,1.28-1c4.85-.06,9.7.29,14.54.13,3.9-.12,6,3.77,4.35,7.24a5.23,5.23,0,0,1-1.25,1.67c-.35.31-.39.56-.07.93a10.74,10.74,0,0,1,2.64,4.89.55.55,0,0,0,.61.51c.32,0,.65,0,1,0a1.21,1.21,0,0,0,1.22-.67,8.92,8.92,0,0,1,3.67-3.23,7.93,7.93,0,0,1,4.9-.63,1.84,1.84,0,0,1,1.25.88,1,1,0,0,1,0,1.26,1,1,0,0,1-1.14.34,7.88,7.88,0,0,0-.8-.2c-.57-.1-1.08-.47-1.73-.17a10.12,10.12,0,0,0-3.5,2.34H29c-.87-.57-1.69-.24-2.48-.47a4.69,4.69,0,0,1,3-1.43,2.49,2.49,0,0,1,2.25,1.49.7.7,0,0,0,.75.45h.3c1.34,0,1.45-.08,1.78-1.38.16-.65.12-1.22-.69-1.37-.49-.1-.34-.34-.13-.56a3.72,3.72,0,0,1,2-1.17,1.23,1.23,0,0,1,1.58,1.3c0,.77.08.8.73.37a10.56,10.56,0,0,1,3.17-1.5c.46-.12,1-.27,1.32.18s.13,1-.13,1.39a2,2,0,0,1-1.68,1.07,4.19,4.19,0,0,0-3.34,1.64h3.84c.22,0,.35-.17.49-.31a14.09,14.09,0,0,1,8.13-4.46.69.69,0,0,0,.58-.6c.59-2.14,1.2-4.28,1.74-6.44.14-.56.43-1.32-.62-1.52-.37-.07-.16-.4,0-.59A5,5,0,0,1,53.5,27h.9a.86.86,0,0,1,.32.87c-.07.64-.13,1.29-.21,1.93-.35,2.6-1.06,5.13-1.63,7.69A1.89,1.89,0,0,0,53,39a4.13,4.13,0,0,1,.35,1.6c.06.46,0,.68-.56.37s-.94-.17-1,.51a1.1,1.1,0,0,1-.07.29c-.24.57,0,.71.55.69.7,0,1.4,0,2.1,0a1.22,1.22,0,0,0,1-.43,11.45,11.45,0,0,1,2.44-2A10,10,0,0,1,64,38.21c.8.06,1.35.52,1.34,1.13s-.48,1-1.35,1a9,9,0,0,0-4.09,1.07,2.48,2.48,0,0,0-1.22,1c2.29,0,4.46,0,6.63,0a1,1,0,0,0,1.14-.72,9.64,9.64,0,0,1,1.81-2.91,2.08,2.08,0,0,1,3.57.69,4.79,4.79,0,0,1,.27,1.91.59.59,0,0,0,.51.7,4.11,4.11,0,0,1,2,1.11V44a6.93,6.93,0,0,1-2.47,1c-.41.05-.52.31-.46.7a2.83,2.83,0,0,0,1.5,2.28c.16.08.39.12.41.39-.21.21-.46.12-.69.07-1.5-.26-2.12-1-2.36-2.66-.05-.37-.07-.68-.56-.72a11,11,0,0,1-2.64-.52.59.59,0,0,0-.86.43,17.08,17.08,0,0,1-.74,1.88A6,6,0,0,1,62,50.2a1.68,1.68,0,0,1-2.21-1.59,2,2,0,0,0-.11-.89A10.93,10.93,0,0,1,56.47,50,2.63,2.63,0,0,1,52.76,47a6.78,6.78,0,0,1,.61-2.15c.22-.44.16-.65-.37-.64s-.9,0-1.35,0a.65.65,0,0,0-.75.55c-.23.84-.5,1.67-.75,2.51-.13.44,0,.7.49.66s.92-.1,1.37-.16A5.84,5.84,0,0,1,48.66,50c-1.16.28-1.69-.29-1.36-1.43l1.09-3.74c.06-.2.2-.4,0-.59-.27.2-.27.5-.36.75a11.84,11.84,0,0,1-1.5,3.09,4.85,4.85,0,0,1-4.94,2,2.71,2.71,0,0,1-2.38-2.82,4.49,4.49,0,0,1,.66-2.65c.24-.36.11-.48-.28-.5-.82,0-1.65-.05-2.47-.11a.92.92,0,0,0-1,.59,27.38,27.38,0,0,0-1.43,3.62c-.39,1.21-.88,2.11-2.37,1.8a.52.52,0,0,0-.15,0c-.86.08-.87.07-.57-.77L33,45.16c.49-1.37.49-1.15-.81-1.17-.47,0-.92-.08-1.16.54A9.3,9.3,0,0,1,28,48.79a6.1,6.1,0,0,1-5,1.34,2.1,2.1,0,0,1-1.86-1.89,8.81,8.81,0,0,1,.17-3.64c.06-.2.24-.43.05-.63-.33-.36-1.54-.07-1.72.4A5.86,5.86,0,0,1,19,45.87a12.13,12.13,0,0,1-6.42,4.42,31.85,31.85,0,0,1-4,.71H5.65l-1.39-.25a14.56,14.56,0,0,1-6.53-3c-.13-.1-.33-.19-.21-.41A2.56,2.56,0,0,1-.17,47a5.6,5.6,0,0,0,2,1.39,12.82,12.82,0,0,0,12-1.14,5.32,5.32,0,0,0,2.2-2.77c.18-.5.06-.67-.47-.67-1.9,0-3.79-.1-5.69-.12-3.62,0-7.25,0-10.87-.07a2.91,2.91,0,0,0-2.9,1.42,12.19,12.19,0,0,1-6.38,5,32.66,32.66,0,0,1-3.91,1h-4.5a19.19,19.19,0,0,1-3.67-1c-2.73-1.26-4.84-3.08-5.51-6.17-.09-.4-.33-.45-.65-.45-1.1,0-2.2-.08-3.3-.1-1.62,0-3.25,0-4.87,0Zm43.81-.17v0c2.85,0,5.7,0,8.55,0,.65,0,.9-.2.86-.86a4.56,4.56,0,0,0-1.42-3,.73.73,0,0,0-.87-.2,14.24,14.24,0,0,1-4.83,1,6.23,6.23,0,0,1-3.56-.68c-1.6-1-1.69-2.2-.41-3.5a3.69,3.69,0,0,1,1.62-.91,9.83,9.83,0,0,1,6.39.36c1.12.42,1.39.35,2.09-.64a3.82,3.82,0,0,0,.62-1.36,2.41,2.41,0,0,0-2-2.93c-3.07-.05-6.14-.12-9.21-.33-.75-.05-1,.25-1.26.93A46.71,46.71,0,0,1-1.66,42.07c-.11.18-.38.36-.22.58s.37.08.57.08Zm-26.31.81v-.16c-1.72,0-3.45,0-5.17,0-.68,0-.84.27-.68.87a5.63,5.63,0,0,0,1.68,2.86,8.92,8.92,0,0,0,4.84,2,12.68,12.68,0,0,0,5.85-.22A14.68,14.68,0,0,0-6,44.06c.09-.11.25-.24.18-.38s-.36-.13-.54-.13ZM26.5,44h0c-.57,0-1.15,0-1.72,0a.8.8,0,0,0-.88.64,12.88,12.88,0,0,0-.49,2.26c-.12.89.32,1.25,1.21,1,1.89-.48,3-1.88,4-3.38.27-.4.06-.53-.34-.53Zm32.24.3H57.4c-.25,0-.52,0-.67.25a5.34,5.34,0,0,0-1,2.48c0,.9.63,1.32,1.44.9a7.57,7.57,0,0,0,2.92-2.6c.17-.26.52-.57.39-.84s-.63-.13-1-.17A7.28,7.28,0,0,0,58.74,44.28Zm-11.46-.14c-1.12,0-2.06,0-3,0a1.31,1.31,0,0,0-1.37.81c-.13.27-.27.53-.39.81a1.14,1.14,0,0,0,.08,1.39c.42.41.91.19,1.33,0A9.12,9.12,0,0,0,47.28,44.14Zm15.78,4a1.5,1.5,0,0,0,1.16-.7,9.46,9.46,0,0,0,1.12-2.67.3.3,0,0,0,0-.35,3.32,3.32,0,0,0-2.07.15,5.86,5.86,0,0,0-1,2.56A.86.86,0,0,0,63.06,48.1ZM12.48,36.79a8.25,8.25,0,0,0-3.76-.73,2.34,2.34,0,0,0-1,.3c-.27.14-.54.33-.51.67s.38.41.67.46A8.8,8.8,0,0,0,12.48,36.79ZM67.7,42.07A10.82,10.82,0,0,1,70,41.8c.7.08.88-.31.85-.89a4,4,0,0,0-.12-.74c-.18-.72-.56-.87-1.21-.5A4,4,0,0,0,67.7,42.07Zm-22.58.46a19.17,19.17,0,0,0,3.78-.17,2.51,2.51,0,0,0,.58-1.68.3.3,0,0,0-.34-.1A10.14,10.14,0,0,0,45.12,42.53Z" transform="translate(36.65 -27)"/>
</symbol>
</defs>
</svg>
